<mxfile host="app.diagrams.net" agent="Mozilla/5.0 (Macintosh; Intel Mac OS X 10_15_7) AppleWebKit/605.1.15 (KHTML, like Gecko) Version/18.4 Safari/605.1.15" version="26.2.14">
  <diagram id="R2lEEEUBdFMjLlhIrx00" name="Page-1">
    <mxGraphModel dx="976" dy="672" grid="1" gridSize="10" guides="1" tooltips="1" connect="1" arrows="1" fold="1" page="1" pageScale="1" pageWidth="850" pageHeight="1100" math="0" shadow="0" extFonts="Permanent Marker^https://fonts.googleapis.com/css?family=Permanent+Marker">
      <root>
        <mxCell id="0" />
        <mxCell id="1" parent="0" />
        <mxCell id="-WGrOQ5jGQ6HtvXAm8pc-1" value="Teachers" style="rounded=0;whiteSpace=wrap;html=1;" parent="1" vertex="1">
          <mxGeometry x="90" y="140" width="120" height="60" as="geometry" />
        </mxCell>
        <mxCell id="-WGrOQ5jGQ6HtvXAm8pc-2" value="Activities" style="rounded=0;whiteSpace=wrap;html=1;" parent="1" vertex="1">
          <mxGeometry x="530" y="140" width="120" height="60" as="geometry" />
        </mxCell>
        <mxCell id="-WGrOQ5jGQ6HtvXAm8pc-3" value="Categories" style="rounded=0;whiteSpace=wrap;html=1;" parent="1" vertex="1">
          <mxGeometry x="320" y="330" width="120" height="60" as="geometry" />
        </mxCell>
        <mxCell id="-WGrOQ5jGQ6HtvXAm8pc-4" value="photos" style="ellipse;whiteSpace=wrap;html=1;" parent="1" vertex="1">
          <mxGeometry x="130" y="10" width="50" height="50" as="geometry" />
        </mxCell>
        <mxCell id="-WGrOQ5jGQ6HtvXAm8pc-5" value="name" style="ellipse;whiteSpace=wrap;html=1;" parent="1" vertex="1">
          <mxGeometry x="10" y="50" width="40" height="40" as="geometry" />
        </mxCell>
        <mxCell id="-WGrOQ5jGQ6HtvXAm8pc-6" value="surname" style="ellipse;whiteSpace=wrap;html=1;" parent="1" vertex="1">
          <mxGeometry x="60" y="20" width="60" height="50" as="geometry" />
        </mxCell>
        <mxCell id="-WGrOQ5jGQ6HtvXAm8pc-7" value="Experiences" style="ellipse;whiteSpace=wrap;html=1;" parent="1" vertex="1">
          <mxGeometry x="190" y="20" width="70" height="60" as="geometry" />
        </mxCell>
        <mxCell id="-WGrOQ5jGQ6HtvXAm8pc-9" value="" style="endArrow=none;html=1;rounded=0;entryX=0.5;entryY=1;entryDx=0;entryDy=0;exitX=0.5;exitY=0;exitDx=0;exitDy=0;" parent="1" source="-WGrOQ5jGQ6HtvXAm8pc-1" target="-WGrOQ5jGQ6HtvXAm8pc-5" edge="1">
          <mxGeometry width="50" height="50" relative="1" as="geometry">
            <mxPoint x="40" y="150" as="sourcePoint" />
            <mxPoint x="90" y="100" as="targetPoint" />
          </mxGeometry>
        </mxCell>
        <mxCell id="-WGrOQ5jGQ6HtvXAm8pc-10" value="" style="endArrow=none;html=1;rounded=0;entryX=0.5;entryY=1;entryDx=0;entryDy=0;exitX=0.5;exitY=0;exitDx=0;exitDy=0;" parent="1" source="-WGrOQ5jGQ6HtvXAm8pc-1" target="-WGrOQ5jGQ6HtvXAm8pc-6" edge="1">
          <mxGeometry width="50" height="50" relative="1" as="geometry">
            <mxPoint x="160" y="150" as="sourcePoint" />
            <mxPoint x="60" y="100" as="targetPoint" />
          </mxGeometry>
        </mxCell>
        <mxCell id="-WGrOQ5jGQ6HtvXAm8pc-11" value="" style="endArrow=none;html=1;rounded=0;entryX=0.5;entryY=1;entryDx=0;entryDy=0;exitX=0.5;exitY=0;exitDx=0;exitDy=0;" parent="1" source="-WGrOQ5jGQ6HtvXAm8pc-1" target="-WGrOQ5jGQ6HtvXAm8pc-4" edge="1">
          <mxGeometry width="50" height="50" relative="1" as="geometry">
            <mxPoint x="170" y="160" as="sourcePoint" />
            <mxPoint x="70" y="110" as="targetPoint" />
          </mxGeometry>
        </mxCell>
        <mxCell id="-WGrOQ5jGQ6HtvXAm8pc-12" value="" style="endArrow=none;html=1;rounded=0;entryX=0.5;entryY=1;entryDx=0;entryDy=0;exitX=0.5;exitY=0;exitDx=0;exitDy=0;" parent="1" source="-WGrOQ5jGQ6HtvXAm8pc-1" target="-WGrOQ5jGQ6HtvXAm8pc-7" edge="1">
          <mxGeometry width="50" height="50" relative="1" as="geometry">
            <mxPoint x="180" y="170" as="sourcePoint" />
            <mxPoint x="80" y="120" as="targetPoint" />
          </mxGeometry>
        </mxCell>
        <mxCell id="-WGrOQ5jGQ6HtvXAm8pc-13" value="id" style="ellipse;whiteSpace=wrap;html=1;" parent="1" vertex="1">
          <mxGeometry x="250" y="80" width="45" height="40" as="geometry" />
        </mxCell>
        <mxCell id="-WGrOQ5jGQ6HtvXAm8pc-14" value="" style="endArrow=none;html=1;rounded=0;entryX=0;entryY=0.5;entryDx=0;entryDy=0;exitX=0.5;exitY=0;exitDx=0;exitDy=0;" parent="1" source="-WGrOQ5jGQ6HtvXAm8pc-1" target="-WGrOQ5jGQ6HtvXAm8pc-13" edge="1">
          <mxGeometry width="50" height="50" relative="1" as="geometry">
            <mxPoint x="160" y="150" as="sourcePoint" />
            <mxPoint x="275" y="80" as="targetPoint" />
          </mxGeometry>
        </mxCell>
        <mxCell id="-WGrOQ5jGQ6HtvXAm8pc-16" value="id" style="ellipse;whiteSpace=wrap;html=1;" parent="1" vertex="1">
          <mxGeometry x="460" y="85" width="40" height="40" as="geometry" />
        </mxCell>
        <mxCell id="-WGrOQ5jGQ6HtvXAm8pc-17" value="name" style="ellipse;whiteSpace=wrap;html=1;" parent="1" vertex="1">
          <mxGeometry x="505" y="45" width="40" height="40" as="geometry" />
        </mxCell>
        <mxCell id="-WGrOQ5jGQ6HtvXAm8pc-18" value="timetable" style="ellipse;whiteSpace=wrap;html=1;" parent="1" vertex="1">
          <mxGeometry x="560" y="35" width="60" height="40" as="geometry" />
        </mxCell>
        <mxCell id="-WGrOQ5jGQ6HtvXAm8pc-19" value="description" style="ellipse;whiteSpace=wrap;html=1;" parent="1" vertex="1">
          <mxGeometry x="675" y="70" width="70" height="40" as="geometry" />
        </mxCell>
        <mxCell id="-WGrOQ5jGQ6HtvXAm8pc-20" value="photos" style="ellipse;whiteSpace=wrap;html=1;" parent="1" vertex="1">
          <mxGeometry x="635" y="40" width="40" height="40" as="geometry" />
        </mxCell>
        <mxCell id="-WGrOQ5jGQ6HtvXAm8pc-21" value="additional&lt;div&gt;info&lt;/div&gt;" style="ellipse;whiteSpace=wrap;html=1;" parent="1" vertex="1">
          <mxGeometry x="700" y="120" width="70" height="40" as="geometry" />
        </mxCell>
        <mxCell id="-WGrOQ5jGQ6HtvXAm8pc-22" value="highlighted" style="ellipse;whiteSpace=wrap;html=1;" parent="1" vertex="1">
          <mxGeometry x="725" y="170" width="70" height="40" as="geometry" />
        </mxCell>
        <mxCell id="-WGrOQ5jGQ6HtvXAm8pc-24" value="promotional&lt;div&gt;text&lt;/div&gt;" style="ellipse;whiteSpace=wrap;html=1;" parent="1" vertex="1">
          <mxGeometry x="695" y="220" width="80" height="40" as="geometry" />
        </mxCell>
        <mxCell id="-WGrOQ5jGQ6HtvXAm8pc-25" value="id" style="ellipse;whiteSpace=wrap;html=1;" parent="1" vertex="1">
          <mxGeometry x="260" y="410" width="40" height="40" as="geometry" />
        </mxCell>
        <mxCell id="-WGrOQ5jGQ6HtvXAm8pc-26" value="name" style="ellipse;whiteSpace=wrap;html=1;" parent="1" vertex="1">
          <mxGeometry x="320" y="430" width="40" height="40" as="geometry" />
        </mxCell>
        <mxCell id="-WGrOQ5jGQ6HtvXAm8pc-27" value="description" style="ellipse;whiteSpace=wrap;html=1;" parent="1" vertex="1">
          <mxGeometry x="390" y="440" width="70" height="40" as="geometry" />
        </mxCell>
        <mxCell id="-WGrOQ5jGQ6HtvXAm8pc-28" value="photos" style="ellipse;whiteSpace=wrap;html=1;" parent="1" vertex="1">
          <mxGeometry x="470" y="400" width="50" height="40" as="geometry" />
        </mxCell>
        <mxCell id="-WGrOQ5jGQ6HtvXAm8pc-29" value="Teacher&lt;div&gt;Activity&lt;/div&gt;" style="rhombus;whiteSpace=wrap;html=1;" parent="1" vertex="1">
          <mxGeometry x="330" y="130" width="80" height="80" as="geometry" />
        </mxCell>
        <mxCell id="-WGrOQ5jGQ6HtvXAm8pc-31" value="Activity&lt;div&gt;Category&lt;/div&gt;" style="rhombus;whiteSpace=wrap;html=1;" parent="1" vertex="1">
          <mxGeometry x="505" y="240" width="80" height="80" as="geometry" />
        </mxCell>
        <mxCell id="-WGrOQ5jGQ6HtvXAm8pc-33" value="" style="endArrow=none;html=1;rounded=0;entryX=0;entryY=0.5;entryDx=0;entryDy=0;exitX=1;exitY=0.5;exitDx=0;exitDy=0;" parent="1" source="-WGrOQ5jGQ6HtvXAm8pc-1" target="-WGrOQ5jGQ6HtvXAm8pc-29" edge="1">
          <mxGeometry width="50" height="50" relative="1" as="geometry">
            <mxPoint x="160" y="150" as="sourcePoint" />
            <mxPoint x="165" y="70" as="targetPoint" />
          </mxGeometry>
        </mxCell>
        <mxCell id="-WGrOQ5jGQ6HtvXAm8pc-34" value="" style="endArrow=none;html=1;rounded=0;entryX=0;entryY=0.5;entryDx=0;entryDy=0;exitX=1;exitY=0.5;exitDx=0;exitDy=0;" parent="1" source="-WGrOQ5jGQ6HtvXAm8pc-29" target="-WGrOQ5jGQ6HtvXAm8pc-2" edge="1">
          <mxGeometry width="50" height="50" relative="1" as="geometry">
            <mxPoint x="430" y="190" as="sourcePoint" />
            <mxPoint x="340" y="180" as="targetPoint" />
          </mxGeometry>
        </mxCell>
        <mxCell id="-WGrOQ5jGQ6HtvXAm8pc-35" value="" style="endArrow=none;html=1;rounded=0;entryX=0.5;entryY=1;entryDx=0;entryDy=0;exitX=1;exitY=0;exitDx=0;exitDy=0;" parent="1" source="-WGrOQ5jGQ6HtvXAm8pc-31" target="-WGrOQ5jGQ6HtvXAm8pc-2" edge="1">
          <mxGeometry width="50" height="50" relative="1" as="geometry">
            <mxPoint x="420" y="180" as="sourcePoint" />
            <mxPoint x="540" y="180" as="targetPoint" />
          </mxGeometry>
        </mxCell>
        <mxCell id="-WGrOQ5jGQ6HtvXAm8pc-36" value="" style="endArrow=none;html=1;rounded=0;entryX=0;entryY=1;entryDx=0;entryDy=0;exitX=1;exitY=0.5;exitDx=0;exitDy=0;" parent="1" source="-WGrOQ5jGQ6HtvXAm8pc-3" target="-WGrOQ5jGQ6HtvXAm8pc-31" edge="1">
          <mxGeometry width="50" height="50" relative="1" as="geometry">
            <mxPoint x="430" y="190" as="sourcePoint" />
            <mxPoint x="550" y="190" as="targetPoint" />
          </mxGeometry>
        </mxCell>
        <mxCell id="-WGrOQ5jGQ6HtvXAm8pc-37" value="" style="endArrow=none;html=1;rounded=0;entryX=0.5;entryY=0;entryDx=0;entryDy=0;exitX=0.968;exitY=0.733;exitDx=0;exitDy=0;exitPerimeter=0;" parent="1" source="-WGrOQ5jGQ6HtvXAm8pc-16" target="-WGrOQ5jGQ6HtvXAm8pc-2" edge="1">
          <mxGeometry width="50" height="50" relative="1" as="geometry">
            <mxPoint x="440" y="200" as="sourcePoint" />
            <mxPoint x="560" y="200" as="targetPoint" />
          </mxGeometry>
        </mxCell>
        <mxCell id="-WGrOQ5jGQ6HtvXAm8pc-38" value="" style="endArrow=none;html=1;rounded=0;entryX=0.5;entryY=0;entryDx=0;entryDy=0;exitX=1;exitY=1;exitDx=0;exitDy=0;" parent="1" source="-WGrOQ5jGQ6HtvXAm8pc-17" target="-WGrOQ5jGQ6HtvXAm8pc-2" edge="1">
          <mxGeometry width="50" height="50" relative="1" as="geometry">
            <mxPoint x="450" y="210" as="sourcePoint" />
            <mxPoint x="570" y="210" as="targetPoint" />
          </mxGeometry>
        </mxCell>
        <mxCell id="-WGrOQ5jGQ6HtvXAm8pc-39" value="" style="endArrow=none;html=1;rounded=0;entryX=0.5;entryY=0;entryDx=0;entryDy=0;exitX=0.5;exitY=1;exitDx=0;exitDy=0;" parent="1" source="-WGrOQ5jGQ6HtvXAm8pc-18" target="-WGrOQ5jGQ6HtvXAm8pc-2" edge="1">
          <mxGeometry width="50" height="50" relative="1" as="geometry">
            <mxPoint x="460" y="220" as="sourcePoint" />
            <mxPoint x="580" y="220" as="targetPoint" />
          </mxGeometry>
        </mxCell>
        <mxCell id="-WGrOQ5jGQ6HtvXAm8pc-40" value="" style="endArrow=none;html=1;rounded=0;entryX=0.5;entryY=0;entryDx=0;entryDy=0;exitX=0.5;exitY=1;exitDx=0;exitDy=0;" parent="1" source="-WGrOQ5jGQ6HtvXAm8pc-20" target="-WGrOQ5jGQ6HtvXAm8pc-2" edge="1">
          <mxGeometry width="50" height="50" relative="1" as="geometry">
            <mxPoint x="470" y="230" as="sourcePoint" />
            <mxPoint x="590" y="230" as="targetPoint" />
          </mxGeometry>
        </mxCell>
        <mxCell id="-WGrOQ5jGQ6HtvXAm8pc-41" value="" style="endArrow=none;html=1;rounded=0;entryX=0.5;entryY=0;entryDx=0;entryDy=0;exitX=0;exitY=1;exitDx=0;exitDy=0;" parent="1" source="-WGrOQ5jGQ6HtvXAm8pc-19" target="-WGrOQ5jGQ6HtvXAm8pc-2" edge="1">
          <mxGeometry width="50" height="50" relative="1" as="geometry">
            <mxPoint x="480" y="240" as="sourcePoint" />
            <mxPoint x="600" y="240" as="targetPoint" />
          </mxGeometry>
        </mxCell>
        <mxCell id="-WGrOQ5jGQ6HtvXAm8pc-42" value="" style="endArrow=none;html=1;rounded=0;entryX=1;entryY=0.5;entryDx=0;entryDy=0;exitX=0;exitY=0.5;exitDx=0;exitDy=0;" parent="1" source="-WGrOQ5jGQ6HtvXAm8pc-21" target="-WGrOQ5jGQ6HtvXAm8pc-2" edge="1">
          <mxGeometry width="50" height="50" relative="1" as="geometry">
            <mxPoint x="490" y="250" as="sourcePoint" />
            <mxPoint x="610" y="250" as="targetPoint" />
          </mxGeometry>
        </mxCell>
        <mxCell id="-WGrOQ5jGQ6HtvXAm8pc-43" value="" style="endArrow=none;html=1;rounded=0;entryX=1;entryY=0.5;entryDx=0;entryDy=0;exitX=0;exitY=0.5;exitDx=0;exitDy=0;" parent="1" source="-WGrOQ5jGQ6HtvXAm8pc-22" target="-WGrOQ5jGQ6HtvXAm8pc-2" edge="1">
          <mxGeometry width="50" height="50" relative="1" as="geometry">
            <mxPoint x="500" y="260" as="sourcePoint" />
            <mxPoint x="620" y="260" as="targetPoint" />
          </mxGeometry>
        </mxCell>
        <mxCell id="-WGrOQ5jGQ6HtvXAm8pc-44" value="" style="endArrow=none;html=1;rounded=0;entryX=0;entryY=0.5;entryDx=0;entryDy=0;exitX=1;exitY=0.5;exitDx=0;exitDy=0;" parent="1" source="-WGrOQ5jGQ6HtvXAm8pc-2" target="-WGrOQ5jGQ6HtvXAm8pc-24" edge="1">
          <mxGeometry width="50" height="50" relative="1" as="geometry">
            <mxPoint x="660" y="210" as="sourcePoint" />
            <mxPoint x="630" y="270" as="targetPoint" />
          </mxGeometry>
        </mxCell>
        <mxCell id="-WGrOQ5jGQ6HtvXAm8pc-45" value="" style="endArrow=none;html=1;rounded=0;entryX=0.5;entryY=1;entryDx=0;entryDy=0;exitX=1;exitY=0;exitDx=0;exitDy=0;" parent="1" source="-WGrOQ5jGQ6HtvXAm8pc-25" target="-WGrOQ5jGQ6HtvXAm8pc-3" edge="1">
          <mxGeometry width="50" height="50" relative="1" as="geometry">
            <mxPoint x="450" y="370" as="sourcePoint" />
            <mxPoint x="535" y="310" as="targetPoint" />
          </mxGeometry>
        </mxCell>
        <mxCell id="-WGrOQ5jGQ6HtvXAm8pc-46" value="" style="endArrow=none;html=1;rounded=0;entryX=0.5;entryY=1;entryDx=0;entryDy=0;exitX=0.5;exitY=0;exitDx=0;exitDy=0;" parent="1" source="-WGrOQ5jGQ6HtvXAm8pc-26" target="-WGrOQ5jGQ6HtvXAm8pc-3" edge="1">
          <mxGeometry width="50" height="50" relative="1" as="geometry">
            <mxPoint x="435" y="410" as="sourcePoint" />
            <mxPoint x="520" y="350" as="targetPoint" />
          </mxGeometry>
        </mxCell>
        <mxCell id="-WGrOQ5jGQ6HtvXAm8pc-47" value="" style="endArrow=none;html=1;rounded=0;entryX=0.5;entryY=1;entryDx=0;entryDy=0;exitX=0.5;exitY=0;exitDx=0;exitDy=0;" parent="1" source="-WGrOQ5jGQ6HtvXAm8pc-27" target="-WGrOQ5jGQ6HtvXAm8pc-3" edge="1">
          <mxGeometry width="50" height="50" relative="1" as="geometry">
            <mxPoint x="470" y="390" as="sourcePoint" />
            <mxPoint x="555" y="330" as="targetPoint" />
          </mxGeometry>
        </mxCell>
        <mxCell id="-WGrOQ5jGQ6HtvXAm8pc-48" value="" style="endArrow=none;html=1;rounded=0;entryX=0.5;entryY=1;entryDx=0;entryDy=0;exitX=0;exitY=0.5;exitDx=0;exitDy=0;" parent="1" source="-WGrOQ5jGQ6HtvXAm8pc-28" target="-WGrOQ5jGQ6HtvXAm8pc-3" edge="1">
          <mxGeometry width="50" height="50" relative="1" as="geometry">
            <mxPoint x="480" y="400" as="sourcePoint" />
            <mxPoint x="565" y="340" as="targetPoint" />
          </mxGeometry>
        </mxCell>
        <mxCell id="PrQCR9BhIxBd7VjD3M1w-1" value="1:N" style="text;html=1;align=center;verticalAlign=middle;resizable=0;points=[];autosize=1;strokeColor=none;fillColor=none;" parent="1" vertex="1">
          <mxGeometry x="201" y="148" width="40" height="30" as="geometry" />
        </mxCell>
        <mxCell id="PrQCR9BhIxBd7VjD3M1w-2" value="1:N" style="text;html=1;align=center;verticalAlign=middle;resizable=0;points=[];autosize=1;strokeColor=none;fillColor=none;" parent="1" vertex="1">
          <mxGeometry x="498" y="148" width="40" height="30" as="geometry" />
        </mxCell>
        <mxCell id="PrQCR9BhIxBd7VjD3M1w-3" value="1:1" style="text;html=1;align=center;verticalAlign=middle;resizable=0;points=[];autosize=1;strokeColor=none;fillColor=none;" parent="1" vertex="1">
          <mxGeometry x="580" y="192" width="40" height="30" as="geometry" />
        </mxCell>
        <mxCell id="PrQCR9BhIxBd7VjD3M1w-4" value="1:N" style="text;html=1;align=center;verticalAlign=middle;resizable=0;points=[];autosize=1;strokeColor=none;fillColor=none;" parent="1" vertex="1">
          <mxGeometry x="432" y="350" width="40" height="30" as="geometry" />
        </mxCell>
        <mxCell id="-vKWuKwpC-riT28wExBS-1" value="Requests" style="rounded=0;whiteSpace=wrap;html=1;" vertex="1" parent="1">
          <mxGeometry x="580" y="440" width="120" height="60" as="geometry" />
        </mxCell>
        <mxCell id="-vKWuKwpC-riT28wExBS-2" value="" style="endArrow=none;html=1;rounded=0;entryX=0.5;entryY=1;entryDx=0;entryDy=0;" edge="1" parent="1">
          <mxGeometry width="50" height="50" relative="1" as="geometry">
            <mxPoint x="540" y="520" as="sourcePoint" />
            <mxPoint x="596" y="500" as="targetPoint" />
          </mxGeometry>
        </mxCell>
        <mxCell id="-vKWuKwpC-riT28wExBS-3" value="" style="endArrow=none;html=1;rounded=0;entryX=0.5;entryY=1;entryDx=0;entryDy=0;" edge="1" parent="1">
          <mxGeometry width="50" height="50" relative="1" as="geometry">
            <mxPoint x="740" y="540" as="sourcePoint" />
            <mxPoint x="680" y="500" as="targetPoint" />
          </mxGeometry>
        </mxCell>
        <mxCell id="-vKWuKwpC-riT28wExBS-4" value="" style="endArrow=none;html=1;rounded=0;entryX=0.5;entryY=1;entryDx=0;entryDy=0;exitX=0.5;exitY=0;exitDx=0;exitDy=0;" edge="1" parent="1" source="-vKWuKwpC-riT28wExBS-8">
          <mxGeometry width="50" height="50" relative="1" as="geometry">
            <mxPoint x="590" y="550" as="sourcePoint" />
            <mxPoint x="625" y="500" as="targetPoint" />
          </mxGeometry>
        </mxCell>
        <mxCell id="-vKWuKwpC-riT28wExBS-5" value="" style="endArrow=none;html=1;rounded=0;entryX=0.5;entryY=1;entryDx=0;entryDy=0;" edge="1" parent="1">
          <mxGeometry width="50" height="50" relative="1" as="geometry">
            <mxPoint x="637" y="550" as="sourcePoint" />
            <mxPoint x="643" y="500" as="targetPoint" />
          </mxGeometry>
        </mxCell>
        <mxCell id="-vKWuKwpC-riT28wExBS-6" value="" style="endArrow=none;html=1;rounded=0;entryX=0.711;entryY=1.028;entryDx=0;entryDy=0;entryPerimeter=0;" edge="1" parent="1" target="-vKWuKwpC-riT28wExBS-1">
          <mxGeometry width="50" height="50" relative="1" as="geometry">
            <mxPoint x="680" y="550" as="sourcePoint" />
            <mxPoint x="683" y="524" as="targetPoint" />
          </mxGeometry>
        </mxCell>
        <mxCell id="-vKWuKwpC-riT28wExBS-7" value="id" style="ellipse;whiteSpace=wrap;html=1;" vertex="1" parent="1">
          <mxGeometry x="505" y="500" width="40" height="40" as="geometry" />
        </mxCell>
        <mxCell id="-vKWuKwpC-riT28wExBS-8" value="fullname" style="ellipse;whiteSpace=wrap;html=1;" vertex="1" parent="1">
          <mxGeometry x="530" y="540" width="70" height="40" as="geometry" />
        </mxCell>
        <mxCell id="-vKWuKwpC-riT28wExBS-10" value="email" style="ellipse;whiteSpace=wrap;html=1;" vertex="1" parent="1">
          <mxGeometry x="610" y="550" width="40" height="40" as="geometry" />
        </mxCell>
        <mxCell id="-vKWuKwpC-riT28wExBS-11" value="text" style="ellipse;whiteSpace=wrap;html=1;" vertex="1" parent="1">
          <mxGeometry x="660" y="540" width="40" height="40" as="geometry" />
        </mxCell>
        <mxCell id="-vKWuKwpC-riT28wExBS-12" value="date" style="ellipse;whiteSpace=wrap;html=1;" vertex="1" parent="1">
          <mxGeometry x="730" y="530" width="40" height="40" as="geometry" />
        </mxCell>
      </root>
    </mxGraphModel>
  </diagram>
</mxfile>
